<?xml version="1.0" encoding="UTF-8" standalone="no"?>
<!DOCTYPE svg PUBLIC "-//W3C//DTD SVG 1.1//EN" "http://www.w3.org/Graphics/SVG/1.1/DTD/svg11.dtd">
<svg width="100%" height="100%" viewBox="0 0 151 61" version="1.1" xmlns="http://www.w3.org/2000/svg" xmlns:xlink="http://www.w3.org/1999/xlink" xml:space="preserve" xmlns:serif="http://www.serif.com/" style="fill-rule:evenodd;clip-rule:evenodd;stroke-linejoin:round;stroke-miterlimit:1.41421;">
    <g transform="matrix(1,0,0,1,-174,-193)">
        <g id="Logo">
            <g transform="matrix(3.88987,0,0,3.88987,-318.081,38.4474)">
                <path d="M145.155,53.663C144.819,53.663 144.382,53.655 143.843,53.64C143.14,53.624 142.702,53.614 142.53,53.61L140.778,53.587C140.603,53.591 140.351,53.583 140.023,53.564C139.909,53.544 139.853,53.484 139.853,53.382C139.853,52.956 139.86,52.318 139.873,51.469C139.887,50.619 139.894,49.982 139.894,49.556C139.894,49.103 139.88,48.424 139.853,47.52C139.825,46.615 139.812,45.937 139.812,45.484C139.812,45.398 139.87,45.355 139.987,45.355C140.105,45.355 140.279,45.36 140.512,45.372C140.744,45.384 140.917,45.39 141.03,45.39C141.159,45.39 141.351,45.383 141.605,45.369C141.859,45.356 142.05,45.349 142.179,45.349C142.237,45.349 142.265,45.386 142.261,45.46L142.255,45.536C142.208,46.271 142.155,47.374 142.097,48.847L142.091,50.394C142.091,50.894 142.093,51.259 142.097,51.489C142.101,51.536 142.105,51.583 142.109,51.63C142.112,51.677 142.142,51.706 142.196,51.718C142.2,51.718 142.251,51.718 142.349,51.718C142.7,51.718 143.227,51.699 143.928,51.662C144.629,51.625 145.155,51.607 145.507,51.607C145.612,51.607 145.665,51.651 145.665,51.741C145.665,52.409 145.616,52.985 145.519,53.47C145.499,53.571 145.458,53.632 145.396,53.651C145.376,53.659 145.296,53.663 145.155,53.663Z" style="fill:#fff;fill-rule:nonzero;"/>
                <path d="M151.929,50.681C151.929,51.571 151.656,52.294 151.111,52.849C150.567,53.403 149.851,53.681 148.964,53.681C148.105,53.681 147.398,53.407 146.843,52.86C146.288,52.314 146.011,51.61 146.011,50.751C146.011,49.845 146.277,49.109 146.808,48.545C147.339,47.981 148.058,47.698 148.964,47.698C149.847,47.698 150.562,47.975 151.109,48.527C151.655,49.08 151.929,49.798 151.929,50.681ZM150.007,50.681C150.007,50.372 149.911,50.1 149.72,49.863C149.528,49.627 149.28,49.509 148.976,49.509C148.667,49.509 148.413,49.63 148.214,49.872C148.027,50.099 147.933,50.368 147.933,50.681C147.933,50.997 148.027,51.269 148.214,51.495C148.413,51.737 148.667,51.859 148.976,51.859C149.28,51.859 149.532,51.737 149.732,51.495C149.915,51.269 150.007,50.997 150.007,50.681Z" style="fill:#fff;fill-rule:nonzero;"/>
                <path d="M158.474,52.04C158.474,53.153 158.239,53.952 157.771,54.437C157.286,54.933 156.482,55.181 155.357,55.181C155.028,55.181 154.581,55.128 154.015,55.023C153.292,54.89 152.931,54.734 152.931,54.554C152.931,54.48 153.015,54.097 153.183,53.405C153.21,53.296 153.253,53.241 153.312,53.241C153.331,53.245 153.353,53.253 153.376,53.265C153.978,53.562 154.534,53.71 155.046,53.71C155.327,53.71 155.607,53.64 155.884,53.499C156.22,53.331 156.388,53.12 156.388,52.866L156.388,52.474C155.989,52.849 155.478,53.036 154.853,53.036C154.118,53.036 153.515,52.773 153.042,52.245C152.585,51.737 152.357,51.112 152.357,50.37C152.357,49.624 152.575,49.005 153.013,48.513C153.47,48.001 154.068,47.745 154.806,47.745C155.396,47.745 155.847,47.956 156.159,48.378C156.222,48.464 156.265,48.507 156.288,48.507C156.323,48.507 156.341,48.437 156.341,48.296C156.341,47.984 156.376,47.827 156.446,47.827C156.509,47.827 156.847,47.859 157.46,47.924C158.073,47.988 158.392,48.025 158.415,48.032C158.482,48.056 158.515,48.107 158.515,48.185C158.515,48.454 158.506,48.857 158.488,49.392C158.471,49.927 158.462,50.329 158.462,50.599C158.462,50.759 158.464,50.999 158.468,51.319C158.472,51.64 158.474,51.88 158.474,52.04ZM156.446,50.417C156.446,50.132 156.352,49.885 156.162,49.676C155.973,49.467 155.735,49.362 155.45,49.362C155.165,49.362 154.928,49.469 154.738,49.682C154.549,49.895 154.454,50.144 154.454,50.429C154.454,50.714 154.551,50.96 154.744,51.167C154.938,51.374 155.173,51.478 155.45,51.478C155.735,51.478 155.973,51.372 156.162,51.161C156.352,50.95 156.446,50.702 156.446,50.417Z" style="fill:#fff;fill-rule:nonzero;"/>
                <path d="M165.124,50.681C165.124,51.571 164.852,52.294 164.307,52.849C163.762,53.403 163.046,53.681 162.159,53.681C161.3,53.681 160.593,53.407 160.038,52.86C159.484,52.314 159.206,51.61 159.206,50.751C159.206,49.845 159.472,49.109 160.003,48.545C160.534,47.981 161.253,47.698 162.159,47.698C163.042,47.698 163.757,47.975 164.304,48.527C164.851,49.08 165.124,49.798 165.124,50.681ZM163.202,50.681C163.202,50.372 163.107,50.1 162.915,49.863C162.724,49.627 162.476,49.509 162.171,49.509C161.862,49.509 161.609,49.63 161.409,49.872C161.222,50.099 161.128,50.368 161.128,50.681C161.128,50.997 161.222,51.269 161.409,51.495C161.609,51.737 161.862,51.859 162.171,51.859C162.476,51.859 162.728,51.737 162.927,51.495C163.11,51.269 163.202,50.997 163.202,50.681Z" style="fill:#fff;fill-rule:nonzero;"/>
            </g>
            <g transform="matrix(0.10858,0,0,0.10858,174.454,193.637)">
                <path d="M192,0C79.7,101.3 0,220.9 0,300.5C0,425 79,512 192,512C305,512 384,425 384,300.5C384,220.6 303.8,100.9 192,0ZM192,448C135.5,448 96,409 96,353.2C96,339.7 100.6,291.7 192,192C283.4,291.7 288,339.7 288,353.2C288,409 248.5,448 192,448Z" style="fill:#fff;fill-rule:nonzero;"/>
            </g>
        </g>
    </g>
</svg>
